<mxfile host="app.diagrams.net" agent="Mozilla/5.0 (Windows NT 10.0; Win64; x64) AppleWebKit/537.36 (KHTML, like Gecko) Chrome/135.0.0.0 Safari/537.36" version="26.2.15">
  <diagram id="C5RBs43oDa-KdzZeNtuy" name="Page-1">
    <mxGraphModel dx="1830" dy="753" grid="1" gridSize="10" guides="1" tooltips="1" connect="1" arrows="1" fold="1" page="1" pageScale="1" pageWidth="827" pageHeight="1169" math="0" shadow="0">
      <root>
        <mxCell id="WIyWlLk6GJQsqaUBKTNV-0" />
        <mxCell id="WIyWlLk6GJQsqaUBKTNV-1" parent="WIyWlLk6GJQsqaUBKTNV-0" />
        <mxCell id="zkfFHV4jXpPFQw0GAbJ--0" value="IFU" style="swimlane;fontStyle=2;align=center;verticalAlign=top;childLayout=stackLayout;horizontal=1;startSize=26;horizontalStack=0;resizeParent=1;resizeLast=0;collapsible=1;marginBottom=0;rounded=0;shadow=0;strokeWidth=1;" parent="WIyWlLk6GJQsqaUBKTNV-1" vertex="1">
          <mxGeometry x="240" y="140" width="190" height="150" as="geometry">
            <mxRectangle x="230" y="140" width="160" height="26" as="alternateBounds" />
          </mxGeometry>
        </mxCell>
        <mxCell id="zkfFHV4jXpPFQw0GAbJ--1" value="Name" style="text;align=left;verticalAlign=top;spacingLeft=4;spacingRight=4;overflow=hidden;rotatable=0;points=[[0,0.5],[1,0.5]];portConstraint=eastwest;" parent="zkfFHV4jXpPFQw0GAbJ--0" vertex="1">
          <mxGeometry y="26" width="190" height="26" as="geometry" />
        </mxCell>
        <mxCell id="KODN2zmgsEhRJ-fXcD3F-33" style="edgeStyle=orthogonalEdgeStyle;rounded=0;orthogonalLoop=1;jettySize=auto;html=1;exitX=1;exitY=0.75;exitDx=0;exitDy=0;entryX=0.25;entryY=0;entryDx=0;entryDy=0;" edge="1" parent="WIyWlLk6GJQsqaUBKTNV-1" source="KODN2zmgsEhRJ-fXcD3F-10" target="KODN2zmgsEhRJ-fXcD3F-22">
          <mxGeometry relative="1" as="geometry">
            <Array as="points">
              <mxPoint x="1970" y="253" />
              <mxPoint x="1970" y="380" />
              <mxPoint x="560" y="380" />
              <mxPoint x="560" y="500" />
            </Array>
          </mxGeometry>
        </mxCell>
        <mxCell id="KODN2zmgsEhRJ-fXcD3F-80" value="DNPC_VALID" style="edgeLabel;html=1;align=center;verticalAlign=middle;resizable=0;points=[];" vertex="1" connectable="0" parent="KODN2zmgsEhRJ-fXcD3F-33">
          <mxGeometry x="0.9056" y="-6" relative="1" as="geometry">
            <mxPoint as="offset" />
          </mxGeometry>
        </mxCell>
        <mxCell id="KODN2zmgsEhRJ-fXcD3F-34" style="edgeStyle=orthogonalEdgeStyle;rounded=0;orthogonalLoop=1;jettySize=auto;html=1;exitX=1;exitY=0.5;exitDx=0;exitDy=0;entryX=0.5;entryY=0;entryDx=0;entryDy=0;" edge="1" parent="WIyWlLk6GJQsqaUBKTNV-1" source="KODN2zmgsEhRJ-fXcD3F-10" target="KODN2zmgsEhRJ-fXcD3F-22">
          <mxGeometry relative="1" as="geometry">
            <Array as="points">
              <mxPoint x="2000" y="215" />
              <mxPoint x="2000" y="400" />
              <mxPoint x="615" y="400" />
            </Array>
          </mxGeometry>
        </mxCell>
        <mxCell id="KODN2zmgsEhRJ-fXcD3F-77" value="DNPC" style="edgeLabel;html=1;align=center;verticalAlign=middle;resizable=0;points=[];" vertex="1" connectable="0" parent="KODN2zmgsEhRJ-fXcD3F-34">
          <mxGeometry x="0.9417" y="-1" relative="1" as="geometry">
            <mxPoint as="offset" />
          </mxGeometry>
        </mxCell>
        <mxCell id="KODN2zmgsEhRJ-fXcD3F-35" style="edgeStyle=orthogonalEdgeStyle;rounded=0;orthogonalLoop=1;jettySize=auto;html=1;exitX=1;exitY=0.5;exitDx=0;exitDy=0;entryX=0.25;entryY=0;entryDx=0;entryDy=0;" edge="1" parent="WIyWlLk6GJQsqaUBKTNV-1" source="KODN2zmgsEhRJ-fXcD3F-10" target="KODN2zmgsEhRJ-fXcD3F-20">
          <mxGeometry relative="1" as="geometry">
            <Array as="points">
              <mxPoint x="2000" y="215" />
              <mxPoint x="2000" y="400" />
              <mxPoint x="908" y="400" />
            </Array>
          </mxGeometry>
        </mxCell>
        <mxCell id="KODN2zmgsEhRJ-fXcD3F-79" value="GPR_WEN" style="edgeLabel;html=1;align=center;verticalAlign=middle;resizable=0;points=[];" vertex="1" connectable="0" parent="KODN2zmgsEhRJ-fXcD3F-35">
          <mxGeometry x="0.9016" y="-2" relative="1" as="geometry">
            <mxPoint as="offset" />
          </mxGeometry>
        </mxCell>
        <mxCell id="KODN2zmgsEhRJ-fXcD3F-38" style="edgeStyle=orthogonalEdgeStyle;rounded=0;orthogonalLoop=1;jettySize=auto;html=1;exitX=1;exitY=0.25;exitDx=0;exitDy=0;entryX=0.5;entryY=0;entryDx=0;entryDy=0;" edge="1" parent="WIyWlLk6GJQsqaUBKTNV-1" source="KODN2zmgsEhRJ-fXcD3F-10" target="KODN2zmgsEhRJ-fXcD3F-20">
          <mxGeometry relative="1" as="geometry">
            <Array as="points">
              <mxPoint x="2030" y="177" />
              <mxPoint x="2030" y="420" />
              <mxPoint x="955" y="420" />
            </Array>
          </mxGeometry>
        </mxCell>
        <mxCell id="KODN2zmgsEhRJ-fXcD3F-78" value="GPR_WDATA" style="edgeLabel;html=1;align=center;verticalAlign=middle;resizable=0;points=[];" vertex="1" connectable="0" parent="KODN2zmgsEhRJ-fXcD3F-38">
          <mxGeometry x="0.8598" y="5" relative="1" as="geometry">
            <mxPoint as="offset" />
          </mxGeometry>
        </mxCell>
        <mxCell id="KODN2zmgsEhRJ-fXcD3F-56" style="edgeStyle=orthogonalEdgeStyle;rounded=0;orthogonalLoop=1;jettySize=auto;html=1;exitX=1;exitY=0;exitDx=0;exitDy=0;entryX=0.5;entryY=0;entryDx=0;entryDy=0;" edge="1" parent="WIyWlLk6GJQsqaUBKTNV-1" source="KODN2zmgsEhRJ-fXcD3F-10" target="KODN2zmgsEhRJ-fXcD3F-55">
          <mxGeometry relative="1" as="geometry">
            <Array as="points">
              <mxPoint x="1930" y="160" />
              <mxPoint x="2080" y="160" />
              <mxPoint x="2080" y="440" />
              <mxPoint x="1275" y="440" />
            </Array>
          </mxGeometry>
        </mxCell>
        <mxCell id="KODN2zmgsEhRJ-fXcD3F-57" value="CSR_RELATED:is_ecall, is_mret, csr_wdata" style="edgeLabel;html=1;align=center;verticalAlign=middle;resizable=0;points=[];" vertex="1" connectable="0" parent="KODN2zmgsEhRJ-fXcD3F-56">
          <mxGeometry x="0.5942" y="3" relative="1" as="geometry">
            <mxPoint x="-1" as="offset" />
          </mxGeometry>
        </mxCell>
        <mxCell id="KODN2zmgsEhRJ-fXcD3F-10" value="WBU" style="swimlane;fontStyle=2;align=center;verticalAlign=top;childLayout=stackLayout;horizontal=1;startSize=26;horizontalStack=0;resizeParent=1;resizeLast=0;collapsible=1;marginBottom=0;rounded=0;shadow=0;strokeWidth=1;" vertex="1" parent="WIyWlLk6GJQsqaUBKTNV-1">
          <mxGeometry x="1740" y="140" width="190" height="150" as="geometry">
            <mxRectangle x="230" y="140" width="160" height="26" as="alternateBounds" />
          </mxGeometry>
        </mxCell>
        <mxCell id="KODN2zmgsEhRJ-fXcD3F-11" value="Name" style="text;align=left;verticalAlign=top;spacingLeft=4;spacingRight=4;overflow=hidden;rotatable=0;points=[[0,0.5],[1,0.5]];portConstraint=eastwest;" vertex="1" parent="KODN2zmgsEhRJ-fXcD3F-10">
          <mxGeometry y="26" width="190" height="26" as="geometry" />
        </mxCell>
        <mxCell id="KODN2zmgsEhRJ-fXcD3F-26" style="edgeStyle=orthogonalEdgeStyle;rounded=0;orthogonalLoop=1;jettySize=auto;html=1;exitX=1;exitY=0.25;exitDx=0;exitDy=0;entryX=0;entryY=0.5;entryDx=0;entryDy=0;" edge="1" parent="WIyWlLk6GJQsqaUBKTNV-1" source="KODN2zmgsEhRJ-fXcD3F-12" target="KODN2zmgsEhRJ-fXcD3F-17">
          <mxGeometry relative="1" as="geometry" />
        </mxCell>
        <mxCell id="KODN2zmgsEhRJ-fXcD3F-67" value="VALID" style="edgeLabel;html=1;align=center;verticalAlign=middle;resizable=0;points=[];" vertex="1" connectable="0" parent="KODN2zmgsEhRJ-fXcD3F-26">
          <mxGeometry x="-0.1817" y="1" relative="1" as="geometry">
            <mxPoint as="offset" />
          </mxGeometry>
        </mxCell>
        <mxCell id="KODN2zmgsEhRJ-fXcD3F-65" style="edgeStyle=orthogonalEdgeStyle;rounded=0;orthogonalLoop=1;jettySize=auto;html=1;exitX=1;exitY=0.75;exitDx=0;exitDy=0;entryX=0;entryY=0.75;entryDx=0;entryDy=0;" edge="1" parent="WIyWlLk6GJQsqaUBKTNV-1" source="KODN2zmgsEhRJ-fXcD3F-12" target="KODN2zmgsEhRJ-fXcD3F-16">
          <mxGeometry relative="1" as="geometry" />
        </mxCell>
        <mxCell id="KODN2zmgsEhRJ-fXcD3F-66" value="BUF" style="edgeLabel;html=1;align=center;verticalAlign=middle;resizable=0;points=[];" vertex="1" connectable="0" parent="KODN2zmgsEhRJ-fXcD3F-65">
          <mxGeometry x="-0.0528" y="1" relative="1" as="geometry">
            <mxPoint as="offset" />
          </mxGeometry>
        </mxCell>
        <mxCell id="KODN2zmgsEhRJ-fXcD3F-12" value="EXU" style="swimlane;fontStyle=2;align=center;verticalAlign=top;childLayout=stackLayout;horizontal=1;startSize=26;horizontalStack=0;resizeParent=1;resizeLast=0;collapsible=1;marginBottom=0;rounded=0;shadow=0;strokeWidth=1;" vertex="1" parent="WIyWlLk6GJQsqaUBKTNV-1">
          <mxGeometry x="1017" y="140" width="190" height="150" as="geometry">
            <mxRectangle x="230" y="140" width="160" height="26" as="alternateBounds" />
          </mxGeometry>
        </mxCell>
        <mxCell id="KODN2zmgsEhRJ-fXcD3F-39" value="ALU" style="shape=process;whiteSpace=wrap;html=1;backgroundOutline=1;" vertex="1" parent="KODN2zmgsEhRJ-fXcD3F-12">
          <mxGeometry y="26" width="190" height="40" as="geometry" />
        </mxCell>
        <mxCell id="KODN2zmgsEhRJ-fXcD3F-40" value="BU" style="shape=process;whiteSpace=wrap;html=1;backgroundOutline=1;" vertex="1" parent="KODN2zmgsEhRJ-fXcD3F-12">
          <mxGeometry y="66" width="190" height="40" as="geometry" />
        </mxCell>
        <mxCell id="KODN2zmgsEhRJ-fXcD3F-25" style="edgeStyle=orthogonalEdgeStyle;rounded=0;orthogonalLoop=1;jettySize=auto;html=1;exitX=1;exitY=0.25;exitDx=0;exitDy=0;entryX=0;entryY=0.25;entryDx=0;entryDy=0;" edge="1" parent="WIyWlLk6GJQsqaUBKTNV-1" source="KODN2zmgsEhRJ-fXcD3F-14" target="KODN2zmgsEhRJ-fXcD3F-12">
          <mxGeometry relative="1" as="geometry">
            <mxPoint x="870" y="199.0000000000001" as="targetPoint" />
          </mxGeometry>
        </mxCell>
        <mxCell id="KODN2zmgsEhRJ-fXcD3F-43" value="VALID" style="edgeLabel;html=1;align=center;verticalAlign=middle;resizable=0;points=[];" vertex="1" connectable="0" parent="KODN2zmgsEhRJ-fXcD3F-25">
          <mxGeometry x="-0.2802" y="-2" relative="1" as="geometry">
            <mxPoint x="26" y="-3" as="offset" />
          </mxGeometry>
        </mxCell>
        <mxCell id="KODN2zmgsEhRJ-fXcD3F-48" style="edgeStyle=orthogonalEdgeStyle;rounded=0;orthogonalLoop=1;jettySize=auto;html=1;exitX=1;exitY=0.75;exitDx=0;exitDy=0;entryX=0;entryY=0.75;entryDx=0;entryDy=0;" edge="1" parent="WIyWlLk6GJQsqaUBKTNV-1" source="KODN2zmgsEhRJ-fXcD3F-14" target="KODN2zmgsEhRJ-fXcD3F-12">
          <mxGeometry relative="1" as="geometry">
            <mxPoint x="1000.0000000000002" y="260" as="targetPoint" />
          </mxGeometry>
        </mxCell>
        <mxCell id="KODN2zmgsEhRJ-fXcD3F-49" value="BUF" style="edgeLabel;html=1;align=center;verticalAlign=middle;resizable=0;points=[];" vertex="1" connectable="0" parent="KODN2zmgsEhRJ-fXcD3F-48">
          <mxGeometry x="-0.0493" y="5" relative="1" as="geometry">
            <mxPoint as="offset" />
          </mxGeometry>
        </mxCell>
        <mxCell id="KODN2zmgsEhRJ-fXcD3F-50" style="edgeStyle=orthogonalEdgeStyle;rounded=0;orthogonalLoop=1;jettySize=auto;html=1;exitX=0.75;exitY=1;exitDx=0;exitDy=0;entryX=0;entryY=0.5;entryDx=0;entryDy=0;" edge="1" parent="WIyWlLk6GJQsqaUBKTNV-1" source="KODN2zmgsEhRJ-fXcD3F-14" target="KODN2zmgsEhRJ-fXcD3F-21">
          <mxGeometry relative="1" as="geometry" />
        </mxCell>
        <mxCell id="KODN2zmgsEhRJ-fXcD3F-53" value="RS1&lt;br&gt;RS2" style="edgeLabel;html=1;align=center;verticalAlign=middle;resizable=0;points=[];" vertex="1" connectable="0" parent="KODN2zmgsEhRJ-fXcD3F-50">
          <mxGeometry x="-0.7157" y="1" relative="1" as="geometry">
            <mxPoint y="9" as="offset" />
          </mxGeometry>
        </mxCell>
        <mxCell id="KODN2zmgsEhRJ-fXcD3F-58" style="edgeStyle=orthogonalEdgeStyle;rounded=0;orthogonalLoop=1;jettySize=auto;html=1;exitX=0.5;exitY=1;exitDx=0;exitDy=0;entryX=0;entryY=0.25;entryDx=0;entryDy=0;" edge="1" parent="WIyWlLk6GJQsqaUBKTNV-1" source="KODN2zmgsEhRJ-fXcD3F-14" target="KODN2zmgsEhRJ-fXcD3F-55">
          <mxGeometry relative="1" as="geometry">
            <mxPoint x="1190" y="670" as="targetPoint" />
            <Array as="points">
              <mxPoint x="720" y="290" />
              <mxPoint x="720" y="670" />
              <mxPoint x="1140" y="670" />
              <mxPoint x="1140" y="538" />
            </Array>
          </mxGeometry>
        </mxCell>
        <mxCell id="KODN2zmgsEhRJ-fXcD3F-61" value="CSR_&lt;br&gt;ADDR" style="edgeLabel;html=1;align=center;verticalAlign=middle;resizable=0;points=[];" vertex="1" connectable="0" parent="KODN2zmgsEhRJ-fXcD3F-58">
          <mxGeometry x="-0.8906" y="1" relative="1" as="geometry">
            <mxPoint y="-3" as="offset" />
          </mxGeometry>
        </mxCell>
        <mxCell id="KODN2zmgsEhRJ-fXcD3F-64" style="edgeStyle=orthogonalEdgeStyle;rounded=0;orthogonalLoop=1;jettySize=auto;html=1;exitX=0;exitY=0.5;exitDx=0;exitDy=0;entryX=1;entryY=0.5;entryDx=0;entryDy=0;" edge="1" parent="WIyWlLk6GJQsqaUBKTNV-1" source="KODN2zmgsEhRJ-fXcD3F-14" target="zkfFHV4jXpPFQw0GAbJ--0">
          <mxGeometry relative="1" as="geometry" />
        </mxCell>
        <mxCell id="KODN2zmgsEhRJ-fXcD3F-74" value="READY" style="edgeLabel;html=1;align=center;verticalAlign=middle;resizable=0;points=[];" vertex="1" connectable="0" parent="KODN2zmgsEhRJ-fXcD3F-64">
          <mxGeometry x="0.067" y="-4" relative="1" as="geometry">
            <mxPoint as="offset" />
          </mxGeometry>
        </mxCell>
        <mxCell id="KODN2zmgsEhRJ-fXcD3F-14" value="IDU" style="swimlane;fontStyle=2;align=center;verticalAlign=top;childLayout=stackLayout;horizontal=1;startSize=26;horizontalStack=0;resizeParent=1;resizeLast=0;collapsible=1;marginBottom=0;rounded=0;shadow=0;strokeWidth=1;" vertex="1" parent="WIyWlLk6GJQsqaUBKTNV-1">
          <mxGeometry x="604" y="140" width="190" height="150" as="geometry">
            <mxRectangle x="230" y="140" width="160" height="26" as="alternateBounds" />
          </mxGeometry>
        </mxCell>
        <mxCell id="KODN2zmgsEhRJ-fXcD3F-41" value="IMM_GEN" style="shape=process;whiteSpace=wrap;html=1;backgroundOutline=1;" vertex="1" parent="KODN2zmgsEhRJ-fXcD3F-14">
          <mxGeometry y="26" width="190" height="60" as="geometry" />
        </mxCell>
        <mxCell id="KODN2zmgsEhRJ-fXcD3F-54" style="edgeStyle=orthogonalEdgeStyle;rounded=0;orthogonalLoop=1;jettySize=auto;html=1;exitX=0;exitY=0.5;exitDx=0;exitDy=0;entryX=1;entryY=0.5;entryDx=0;entryDy=0;" edge="1" parent="WIyWlLk6GJQsqaUBKTNV-1" source="KODN2zmgsEhRJ-fXcD3F-16" target="KODN2zmgsEhRJ-fXcD3F-12">
          <mxGeometry relative="1" as="geometry" />
        </mxCell>
        <mxCell id="KODN2zmgsEhRJ-fXcD3F-68" value="READY" style="edgeLabel;html=1;align=center;verticalAlign=middle;resizable=0;points=[];" vertex="1" connectable="0" parent="KODN2zmgsEhRJ-fXcD3F-54">
          <mxGeometry x="0.3544" relative="1" as="geometry">
            <mxPoint x="13" as="offset" />
          </mxGeometry>
        </mxCell>
        <mxCell id="KODN2zmgsEhRJ-fXcD3F-71" style="edgeStyle=orthogonalEdgeStyle;rounded=0;orthogonalLoop=1;jettySize=auto;html=1;exitX=1;exitY=0.75;exitDx=0;exitDy=0;entryX=0;entryY=0.75;entryDx=0;entryDy=0;" edge="1" parent="WIyWlLk6GJQsqaUBKTNV-1" source="KODN2zmgsEhRJ-fXcD3F-16" target="KODN2zmgsEhRJ-fXcD3F-10">
          <mxGeometry relative="1" as="geometry" />
        </mxCell>
        <mxCell id="KODN2zmgsEhRJ-fXcD3F-72" value="BUF" style="edgeLabel;html=1;align=center;verticalAlign=middle;resizable=0;points=[];" vertex="1" connectable="0" parent="KODN2zmgsEhRJ-fXcD3F-71">
          <mxGeometry x="-0.2703" y="2" relative="1" as="geometry">
            <mxPoint as="offset" />
          </mxGeometry>
        </mxCell>
        <mxCell id="KODN2zmgsEhRJ-fXcD3F-16" value="LSU" style="swimlane;fontStyle=2;align=center;verticalAlign=top;childLayout=stackLayout;horizontal=1;startSize=26;horizontalStack=0;resizeParent=1;resizeLast=0;collapsible=1;marginBottom=0;rounded=0;shadow=0;strokeWidth=1;" vertex="1" parent="WIyWlLk6GJQsqaUBKTNV-1">
          <mxGeometry x="1360" y="140" width="190" height="150" as="geometry">
            <mxRectangle x="230" y="140" width="160" height="26" as="alternateBounds" />
          </mxGeometry>
        </mxCell>
        <mxCell id="KODN2zmgsEhRJ-fXcD3F-17" value="Name" style="text;align=left;verticalAlign=top;spacingLeft=4;spacingRight=4;overflow=hidden;rotatable=0;points=[[0,0.5],[1,0.5]];portConstraint=eastwest;" vertex="1" parent="KODN2zmgsEhRJ-fXcD3F-16">
          <mxGeometry y="26" width="190" height="26" as="geometry" />
        </mxCell>
        <mxCell id="KODN2zmgsEhRJ-fXcD3F-18" value="MEM" style="swimlane;fontStyle=2;align=center;verticalAlign=top;childLayout=stackLayout;horizontal=1;startSize=26;horizontalStack=0;resizeParent=1;resizeLast=0;collapsible=1;marginBottom=0;rounded=0;shadow=0;strokeWidth=1;" vertex="1" parent="WIyWlLk6GJQsqaUBKTNV-1">
          <mxGeometry x="1520" y="500" width="190" height="150" as="geometry">
            <mxRectangle x="230" y="140" width="160" height="26" as="alternateBounds" />
          </mxGeometry>
        </mxCell>
        <mxCell id="KODN2zmgsEhRJ-fXcD3F-51" style="edgeStyle=orthogonalEdgeStyle;rounded=0;orthogonalLoop=1;jettySize=auto;html=1;exitX=1;exitY=0.25;exitDx=0;exitDy=0;entryX=0;entryY=0.75;entryDx=0;entryDy=0;" edge="1" parent="WIyWlLk6GJQsqaUBKTNV-1" source="KODN2zmgsEhRJ-fXcD3F-20" target="KODN2zmgsEhRJ-fXcD3F-12">
          <mxGeometry relative="1" as="geometry">
            <Array as="points">
              <mxPoint x="1070" y="538" />
              <mxPoint x="1070" y="340" />
              <mxPoint x="970" y="340" />
              <mxPoint x="970" y="252" />
            </Array>
          </mxGeometry>
        </mxCell>
        <mxCell id="KODN2zmgsEhRJ-fXcD3F-52" value="SRC" style="edgeLabel;html=1;align=center;verticalAlign=middle;resizable=0;points=[];" vertex="1" connectable="0" parent="KODN2zmgsEhRJ-fXcD3F-51">
          <mxGeometry x="0.2334" y="1" relative="1" as="geometry">
            <mxPoint as="offset" />
          </mxGeometry>
        </mxCell>
        <mxCell id="KODN2zmgsEhRJ-fXcD3F-20" value="GPRs" style="swimlane;fontStyle=2;align=center;verticalAlign=top;childLayout=stackLayout;horizontal=1;startSize=26;horizontalStack=0;resizeParent=1;resizeLast=0;collapsible=1;marginBottom=0;rounded=0;shadow=0;strokeWidth=1;" vertex="1" parent="WIyWlLk6GJQsqaUBKTNV-1">
          <mxGeometry x="860" y="500" width="190" height="150" as="geometry">
            <mxRectangle x="230" y="140" width="160" height="26" as="alternateBounds" />
          </mxGeometry>
        </mxCell>
        <mxCell id="KODN2zmgsEhRJ-fXcD3F-21" value="Name" style="text;align=left;verticalAlign=top;spacingLeft=4;spacingRight=4;overflow=hidden;rotatable=0;points=[[0,0.5],[1,0.5]];portConstraint=eastwest;" vertex="1" parent="KODN2zmgsEhRJ-fXcD3F-20">
          <mxGeometry y="26" width="190" height="22" as="geometry" />
        </mxCell>
        <mxCell id="KODN2zmgsEhRJ-fXcD3F-29" style="edgeStyle=orthogonalEdgeStyle;rounded=0;orthogonalLoop=1;jettySize=auto;html=1;exitX=0;exitY=0.5;exitDx=0;exitDy=0;entryX=0.5;entryY=1;entryDx=0;entryDy=0;" edge="1" parent="WIyWlLk6GJQsqaUBKTNV-1" source="KODN2zmgsEhRJ-fXcD3F-22" target="zkfFHV4jXpPFQw0GAbJ--0">
          <mxGeometry relative="1" as="geometry" />
        </mxCell>
        <mxCell id="KODN2zmgsEhRJ-fXcD3F-75" value="PC" style="edgeLabel;html=1;align=center;verticalAlign=middle;resizable=0;points=[];" vertex="1" connectable="0" parent="KODN2zmgsEhRJ-fXcD3F-29">
          <mxGeometry x="-0.5585" y="1" relative="1" as="geometry">
            <mxPoint as="offset" />
          </mxGeometry>
        </mxCell>
        <mxCell id="KODN2zmgsEhRJ-fXcD3F-30" style="edgeStyle=orthogonalEdgeStyle;rounded=0;orthogonalLoop=1;jettySize=auto;html=1;exitX=0;exitY=0.75;exitDx=0;exitDy=0;entryX=0.25;entryY=1;entryDx=0;entryDy=0;" edge="1" parent="WIyWlLk6GJQsqaUBKTNV-1" source="KODN2zmgsEhRJ-fXcD3F-22" target="zkfFHV4jXpPFQw0GAbJ--0">
          <mxGeometry relative="1" as="geometry" />
        </mxCell>
        <mxCell id="KODN2zmgsEhRJ-fXcD3F-76" value="PC_VALID" style="edgeLabel;html=1;align=center;verticalAlign=middle;resizable=0;points=[];" vertex="1" connectable="0" parent="KODN2zmgsEhRJ-fXcD3F-30">
          <mxGeometry x="-0.6036" y="2" relative="1" as="geometry">
            <mxPoint as="offset" />
          </mxGeometry>
        </mxCell>
        <mxCell id="KODN2zmgsEhRJ-fXcD3F-22" value="REG_PC" style="swimlane;fontStyle=2;align=center;verticalAlign=top;childLayout=stackLayout;horizontal=1;startSize=26;horizontalStack=0;resizeParent=1;resizeLast=0;collapsible=1;marginBottom=0;rounded=0;shadow=0;strokeWidth=1;" vertex="1" parent="WIyWlLk6GJQsqaUBKTNV-1">
          <mxGeometry x="520" y="500" width="190" height="150" as="geometry">
            <mxRectangle x="230" y="140" width="160" height="26" as="alternateBounds" />
          </mxGeometry>
        </mxCell>
        <mxCell id="KODN2zmgsEhRJ-fXcD3F-23" value="Name" style="text;align=left;verticalAlign=top;spacingLeft=4;spacingRight=4;overflow=hidden;rotatable=0;points=[[0,0.5],[1,0.5]];portConstraint=eastwest;" vertex="1" parent="KODN2zmgsEhRJ-fXcD3F-22">
          <mxGeometry y="26" width="190" height="22" as="geometry" />
        </mxCell>
        <mxCell id="KODN2zmgsEhRJ-fXcD3F-27" style="edgeStyle=orthogonalEdgeStyle;rounded=0;orthogonalLoop=1;jettySize=auto;html=1;exitX=1;exitY=0.5;exitDx=0;exitDy=0;entryX=0;entryY=0.5;entryDx=0;entryDy=0;" edge="1" parent="WIyWlLk6GJQsqaUBKTNV-1" source="KODN2zmgsEhRJ-fXcD3F-17" target="KODN2zmgsEhRJ-fXcD3F-11">
          <mxGeometry relative="1" as="geometry" />
        </mxCell>
        <mxCell id="KODN2zmgsEhRJ-fXcD3F-70" value="VALID" style="edgeLabel;html=1;align=center;verticalAlign=middle;resizable=0;points=[];" vertex="1" connectable="0" parent="KODN2zmgsEhRJ-fXcD3F-27">
          <mxGeometry x="-0.3012" y="3" relative="1" as="geometry">
            <mxPoint as="offset" />
          </mxGeometry>
        </mxCell>
        <mxCell id="KODN2zmgsEhRJ-fXcD3F-45" style="edgeStyle=orthogonalEdgeStyle;rounded=0;orthogonalLoop=1;jettySize=auto;html=1;exitX=0;exitY=0.5;exitDx=0;exitDy=0;entryX=1;entryY=1;entryDx=0;entryDy=0;" edge="1" parent="WIyWlLk6GJQsqaUBKTNV-1" source="KODN2zmgsEhRJ-fXcD3F-40" target="KODN2zmgsEhRJ-fXcD3F-41">
          <mxGeometry relative="1" as="geometry">
            <Array as="points">
              <mxPoint x="900" y="226" />
              <mxPoint x="900" y="226" />
            </Array>
          </mxGeometry>
        </mxCell>
        <mxCell id="KODN2zmgsEhRJ-fXcD3F-46" value="READY" style="edgeLabel;html=1;align=center;verticalAlign=middle;resizable=0;points=[];" vertex="1" connectable="0" parent="KODN2zmgsEhRJ-fXcD3F-45">
          <mxGeometry x="0.3602" y="-4" relative="1" as="geometry">
            <mxPoint x="48" y="3" as="offset" />
          </mxGeometry>
        </mxCell>
        <mxCell id="KODN2zmgsEhRJ-fXcD3F-59" style="edgeStyle=orthogonalEdgeStyle;rounded=0;orthogonalLoop=1;jettySize=auto;html=1;exitX=1;exitY=0.25;exitDx=0;exitDy=0;entryX=0;entryY=1;entryDx=0;entryDy=0;" edge="1" parent="WIyWlLk6GJQsqaUBKTNV-1" source="KODN2zmgsEhRJ-fXcD3F-55" target="KODN2zmgsEhRJ-fXcD3F-12">
          <mxGeometry relative="1" as="geometry">
            <Array as="points">
              <mxPoint x="1390" y="538" />
              <mxPoint x="1390" y="330" />
              <mxPoint x="1000" y="330" />
              <mxPoint x="1000" y="290" />
            </Array>
          </mxGeometry>
        </mxCell>
        <mxCell id="KODN2zmgsEhRJ-fXcD3F-60" value="CSR_SRC" style="edgeLabel;html=1;align=center;verticalAlign=middle;resizable=0;points=[];" vertex="1" connectable="0" parent="KODN2zmgsEhRJ-fXcD3F-59">
          <mxGeometry x="0.5315" y="-1" relative="1" as="geometry">
            <mxPoint as="offset" />
          </mxGeometry>
        </mxCell>
        <mxCell id="KODN2zmgsEhRJ-fXcD3F-55" value="CSRs" style="swimlane;fontStyle=2;align=center;verticalAlign=top;childLayout=stackLayout;horizontal=1;startSize=26;horizontalStack=0;resizeParent=1;resizeLast=0;collapsible=1;marginBottom=0;rounded=0;shadow=0;strokeWidth=1;" vertex="1" parent="WIyWlLk6GJQsqaUBKTNV-1">
          <mxGeometry x="1180" y="500" width="190" height="150" as="geometry">
            <mxRectangle x="230" y="140" width="160" height="26" as="alternateBounds" />
          </mxGeometry>
        </mxCell>
        <mxCell id="KODN2zmgsEhRJ-fXcD3F-62" style="edgeStyle=orthogonalEdgeStyle;rounded=0;orthogonalLoop=1;jettySize=auto;html=1;exitX=1;exitY=0.5;exitDx=0;exitDy=0;entryX=0;entryY=0.25;entryDx=0;entryDy=0;" edge="1" parent="WIyWlLk6GJQsqaUBKTNV-1" source="zkfFHV4jXpPFQw0GAbJ--1" target="KODN2zmgsEhRJ-fXcD3F-14">
          <mxGeometry relative="1" as="geometry" />
        </mxCell>
        <mxCell id="KODN2zmgsEhRJ-fXcD3F-73" value="VALID" style="edgeLabel;html=1;align=center;verticalAlign=middle;resizable=0;points=[];" vertex="1" connectable="0" parent="KODN2zmgsEhRJ-fXcD3F-62">
          <mxGeometry x="-0.0655" y="-1" relative="1" as="geometry">
            <mxPoint as="offset" />
          </mxGeometry>
        </mxCell>
      </root>
    </mxGraphModel>
  </diagram>
</mxfile>
